<svg data-v-423bf9ae="" xmlns="http://www.w3.org/2000/svg" viewBox="0 0 251.933975144187 60" class="font"><!----><!----><!----><g data-v-423bf9ae="" id="45d829f5-ef80-4a13-9227-c05b74b1d48a" fill="black" transform="matrix(4.716981386705509,0,0,4.716981386705509,-2.2641487336323394,-16.462265799842605)"><path d="M0.48 3.79L0.48 4.38C0.48 4.52 0.55 4.62 0.69 4.65C0.77 4.68 1.04 4.73 1.48 4.82L1.48 12.81L0.69 12.96C0.55 12.99 0.48 13.09 0.48 13.23L0.48 13.82L7.67 13.82L7.67 11.49L7 11.49C6.83 11.49 6.72 11.55 6.69 11.72C6.69 11.76 6.66 12.11 6.61 12.73L2.86 12.73L2.86 9.30L6.55 9.30L6.55 8.23L2.86 8.23L2.86 4.90L6.61 4.90C6.66 5.57 6.71 5.94 6.71 5.98C6.73 6.15 6.83 6.22 7 6.22L7.67 6.22L7.67 3.79ZM14.83 12.95C14.74 12.92 14.32 12.84 14.13 12.80L14.13 9.25C14.13 8.86 14.08 8.50 13.97 8.16C13.86 7.83 13.71 7.55 13.50 7.32C13.29 7.10 13.03 6.93 12.73 6.79C12.42 6.65 12.05 6.59 11.66 6.59C11.10 6.59 10.60 6.68 10.15 6.87C9.70 7.07 9.28 7.34 8.89 7.71L9.11 8.11C9.14 8.16 9.20 8.23 9.25 8.27C9.31 8.32 9.39 8.33 9.48 8.33C9.59 8.33 9.69 8.30 9.80 8.22C9.91 8.13 10.05 8.06 10.21 7.97C10.36 7.87 10.53 7.80 10.74 7.71C10.95 7.63 11.20 7.59 11.51 7.59C11.97 7.59 12.32 7.74 12.56 8.02C12.80 8.30 12.92 8.72 12.92 9.28L12.92 9.83C12.11 9.83 11.44 9.88 10.88 10.01C10.32 10.14 9.87 10.32 9.53 10.51C9.20 10.71 8.93 10.96 8.78 11.21C8.62 11.47 8.55 11.75 8.55 12.03C8.55 12.35 8.60 12.63 8.71 12.87C8.82 13.10 8.96 13.30 9.13 13.45C9.30 13.61 9.52 13.71 9.76 13.79C10.00 13.87 10.23 13.92 10.51 13.92C10.79 13.92 11.05 13.90 11.27 13.85C11.49 13.79 11.69 13.72 11.89 13.64C12.08 13.55 12.28 13.44 12.45 13.30C12.61 13.16 12.81 13.01 13.01 12.84L13.15 13.51C13.17 13.62 13.20 13.71 13.29 13.73C13.37 13.76 13.47 13.79 13.58 13.79L14.03 13.79L14.13 13.79L15.04 13.79L15.04 13.19C15.04 13.06 14.95 12.95 14.83 12.92ZM12.89 12.08C12.75 12.22 12.61 12.36 12.47 12.47C12.33 12.59 12.18 12.70 12.01 12.78C11.84 12.87 11.68 12.92 11.49 12.96C11.31 13.01 11.13 13.03 10.91 13.03C10.74 13.03 10.58 13.01 10.44 12.96C10.30 12.92 10.19 12.87 10.08 12.78C9.97 12.70 9.88 12.59 9.83 12.45C9.77 12.31 9.73 12.17 9.73 11.97C9.73 11.77 9.79 11.61 9.90 11.44C10.01 11.27 10.21 11.13 10.46 11.02C10.71 10.91 11.05 10.79 11.44 10.72C11.83 10.65 12.32 10.63 12.89 10.63ZM18.65 6.62C17.78 6.62 17.14 6.82 16.66 7.24C16.21 7.63 15.99 8.09 15.99 8.67C15.99 9.23 16.18 9.66 16.58 9.98C16.74 10.12 16.95 10.26 17.21 10.37C17.46 10.49 17.89 10.63 18.51 10.82C18.73 10.88 18.93 10.96 19.10 11.05C19.26 11.13 19.40 11.26 19.52 11.38C19.63 11.51 19.68 11.70 19.68 11.97C19.68 12.24 19.56 12.47 19.32 12.68C19.05 12.91 18.69 13.03 18.23 13.03C17.67 13.03 17.18 12.95 16.79 12.75C16.73 12.19 16.70 11.90 16.70 11.86C16.67 11.75 16.60 11.69 16.49 11.69L15.99 11.69L15.99 13.54C16.74 13.79 17.53 13.92 18.28 13.92C19.04 13.92 19.68 13.68 20.16 13.26C20.62 12.85 20.85 12.31 20.85 11.63C20.85 11.12 20.66 10.71 20.27 10.40C20.10 10.26 19.91 10.12 19.68 10.04L19.01 9.79C18.79 9.70 18.49 9.63 18.14 9.52C17.79 9.41 17.53 9.25 17.33 9.03C17.22 8.92 17.16 8.74 17.16 8.50C17.16 8.26 17.29 8.05 17.54 7.85C17.79 7.66 18.12 7.55 18.51 7.55L18.52 7.55C18.83 7.55 19.19 7.60 19.61 7.70C19.67 8.29 19.70 8.60 19.70 8.62C19.73 8.76 19.80 8.82 19.94 8.82L20.48 8.82L20.48 7.49L20.48 7.00C19.74 6.75 19.12 6.62 18.63 6.62ZM28.70 6.73L26.07 6.73L26.07 7.32C26.07 7.46 26.12 7.56 26.26 7.59C26.40 7.62 26.66 7.66 27.03 7.74L25.51 11.44C25.45 11.58 25.37 11.80 25.28 12.08C25.23 11.86 25.19 11.63 25.10 11.44L23.52 7.74C23.97 7.66 24.22 7.60 24.30 7.57C24.44 7.55 24.51 7.46 24.51 7.32L24.51 6.72L21.34 6.72L21.34 7.32C21.34 7.46 21.41 7.55 21.55 7.57C21.63 7.60 21.84 7.66 22.18 7.71L24.67 13.40L23.38 16.21L24.30 16.21C24.50 16.21 24.67 16.10 24.75 15.90L28.27 7.73C28.29 7.73 28.42 7.70 28.62 7.66C28.81 7.62 28.95 7.57 28.99 7.57C29.13 7.55 29.20 7.46 29.20 7.32L29.20 6.72ZM29.96 3.79L29.96 4.38C29.96 4.52 30.03 4.62 30.17 4.65C30.25 4.68 30.52 4.73 30.97 4.82L30.97 12.81L30.17 12.96C30.03 12.99 29.96 13.09 29.96 13.23L29.96 13.82L37.16 13.82L37.16 11.49L36.48 11.49C36.32 11.49 36.20 11.55 36.18 11.72C36.18 11.76 36.15 12.11 36.09 12.73L32.34 12.73L32.34 9.30L36.04 9.30L36.04 8.23L32.34 8.23L32.34 4.90L36.09 4.90C36.15 5.57 36.19 5.94 36.19 5.98C36.22 6.15 36.32 6.22 36.48 6.22L37.16 6.22L37.16 3.79ZM41.26 6.59C40.32 6.59 39.56 6.96 39.00 7.66C38.46 8.33 38.18 9.23 38.18 10.29C38.18 11.47 38.43 12.35 38.91 12.98C39.38 13.59 40.03 13.90 40.87 13.90C41.79 13.90 42.57 13.51 43.25 12.70L43.36 13.55C43.41 13.72 43.53 13.82 43.69 13.82L45.43 13.82L45.43 13.20C45.43 13.06 45.37 12.98 45.23 12.95C45.15 12.92 44.87 12.87 44.42 12.78L44.42 3.49L42.04 3.49L42.04 4.10C42.04 4.24 42.11 4.33 42.25 4.35C42.39 4.38 42.71 4.44 43.19 4.52L43.19 7.43C42.69 6.87 42.03 6.59 41.24 6.59ZM41.27 12.89C40.99 12.89 40.73 12.85 40.50 12.75C39.80 12.45 39.47 11.63 39.47 10.29C39.47 9.42 39.63 8.75 40.00 8.27C40.36 7.80 40.88 7.57 41.55 7.57C42.22 7.57 42.77 7.85 43.19 8.41L43.19 11.83C42.66 12.54 42.01 12.91 41.29 12.91ZM49.71 12.94C49.21 12.94 48.85 12.80 48.59 12.50C48.34 12.21 48.23 11.77 48.23 11.24L48.23 6.73L45.96 6.73L45.96 7.32C45.96 7.46 46.05 7.56 46.19 7.59C46.27 7.62 46.52 7.67 46.97 7.76L46.97 11.26C46.97 12.10 47.19 12.73 47.59 13.20C48.01 13.69 48.59 13.94 49.35 13.94C50.25 13.94 51.03 13.57 51.70 12.81L51.80 13.57C51.86 13.73 51.97 13.83 52.14 13.83L53.89 13.83L53.89 13.23C53.89 13.09 53.82 13.01 53.68 12.98C53.59 12.95 53.33 12.89 52.88 12.81L52.88 6.73L51.63 6.73L50.62 6.73L50.62 7.34C50.62 7.48 50.69 7.57 50.83 7.60C51.28 7.69 51.55 7.74 51.63 7.77L51.63 11.97C51.06 12.61 50.41 12.95 49.71 12.95Z"></path></g><!----><!----></svg>