<svg data-v-423bf9ae="" xmlns="http://www.w3.org/2000/svg" viewBox="0 0 362 90" class="iconLeftSlogan"><!----><!----><!----><g data-v-423bf9ae="" id="adda027d-78bb-4c07-ba6e-547618ea6e11" fill="#08374E" transform="matrix(4.716981386705509,0,0,4.716981386705509,107.73584363697313,-16.462265799842605)"><path d="M0.48 3.79L0.48 4.38C0.48 4.52 0.55 4.62 0.69 4.65C0.77 4.68 1.04 4.73 1.48 4.82L1.48 12.81L0.69 12.96C0.55 12.99 0.48 13.09 0.48 13.23L0.48 13.82L7.67 13.82L7.67 11.49L7 11.49C6.83 11.49 6.72 11.55 6.69 11.72C6.69 11.76 6.66 12.11 6.61 12.73L2.86 12.73L2.86 9.30L6.55 9.30L6.55 8.23L2.86 8.23L2.86 4.90L6.61 4.90C6.66 5.57 6.71 5.94 6.71 5.98C6.73 6.15 6.83 6.22 7 6.22L7.67 6.22L7.67 3.79ZM14.83 12.95C14.74 12.92 14.32 12.84 14.13 12.80L14.13 9.25C14.13 8.86 14.08 8.50 13.97 8.16C13.86 7.83 13.71 7.55 13.50 7.32C13.29 7.10 13.03 6.93 12.73 6.79C12.42 6.65 12.05 6.59 11.66 6.59C11.10 6.59 10.60 6.68 10.15 6.87C9.70 7.07 9.28 7.34 8.89 7.71L9.11 8.11C9.14 8.16 9.20 8.23 9.25 8.27C9.31 8.32 9.39 8.33 9.48 8.33C9.59 8.33 9.69 8.30 9.80 8.22C9.91 8.13 10.05 8.06 10.21 7.97C10.36 7.87 10.53 7.80 10.74 7.71C10.95 7.63 11.20 7.59 11.51 7.59C11.97 7.59 12.32 7.74 12.56 8.02C12.80 8.30 12.92 8.72 12.92 9.28L12.92 9.83C12.11 9.83 11.44 9.88 10.88 10.01C10.32 10.14 9.87 10.32 9.53 10.51C9.20 10.71 8.93 10.96 8.78 11.21C8.62 11.47 8.55 11.75 8.55 12.03C8.55 12.35 8.60 12.63 8.71 12.87C8.82 13.10 8.96 13.30 9.13 13.45C9.30 13.61 9.52 13.71 9.76 13.79C10.00 13.87 10.23 13.92 10.51 13.92C10.79 13.92 11.05 13.90 11.27 13.85C11.49 13.79 11.69 13.72 11.89 13.64C12.08 13.55 12.28 13.44 12.45 13.30C12.61 13.16 12.81 13.01 13.01 12.84L13.15 13.51C13.17 13.62 13.20 13.71 13.29 13.73C13.37 13.76 13.47 13.79 13.58 13.79L14.03 13.79L14.13 13.79L15.04 13.79L15.04 13.19C15.04 13.06 14.95 12.95 14.83 12.92ZM12.89 12.08C12.75 12.22 12.61 12.36 12.47 12.47C12.33 12.59 12.18 12.70 12.01 12.78C11.84 12.87 11.68 12.92 11.49 12.96C11.31 13.01 11.13 13.03 10.91 13.03C10.74 13.03 10.58 13.01 10.44 12.96C10.30 12.92 10.19 12.87 10.08 12.78C9.97 12.70 9.88 12.59 9.83 12.45C9.77 12.31 9.73 12.17 9.73 11.97C9.73 11.77 9.79 11.61 9.90 11.44C10.01 11.27 10.21 11.13 10.46 11.02C10.71 10.91 11.05 10.79 11.44 10.72C11.83 10.65 12.32 10.63 12.89 10.63ZM18.65 6.62C17.78 6.62 17.14 6.82 16.66 7.24C16.21 7.63 15.99 8.09 15.99 8.67C15.99 9.23 16.18 9.66 16.58 9.98C16.74 10.12 16.95 10.26 17.21 10.37C17.46 10.49 17.89 10.63 18.51 10.82C18.73 10.88 18.93 10.96 19.10 11.05C19.26 11.13 19.40 11.26 19.52 11.38C19.63 11.51 19.68 11.70 19.68 11.97C19.68 12.24 19.56 12.47 19.32 12.68C19.05 12.91 18.69 13.03 18.23 13.03C17.67 13.03 17.18 12.95 16.79 12.75C16.73 12.19 16.70 11.90 16.70 11.86C16.67 11.75 16.60 11.69 16.49 11.69L15.99 11.69L15.99 13.54C16.74 13.79 17.53 13.92 18.28 13.92C19.04 13.92 19.68 13.68 20.16 13.26C20.62 12.85 20.85 12.31 20.85 11.63C20.85 11.12 20.66 10.71 20.27 10.40C20.10 10.26 19.91 10.12 19.68 10.04L19.01 9.79C18.79 9.70 18.49 9.63 18.14 9.52C17.79 9.41 17.53 9.25 17.33 9.03C17.22 8.92 17.16 8.74 17.16 8.50C17.16 8.26 17.29 8.05 17.54 7.85C17.79 7.66 18.12 7.55 18.51 7.55L18.52 7.55C18.83 7.55 19.19 7.60 19.61 7.70C19.67 8.29 19.70 8.60 19.70 8.62C19.73 8.76 19.80 8.82 19.94 8.82L20.48 8.82L20.48 7.49L20.48 7.00C19.74 6.75 19.12 6.62 18.63 6.62ZM28.70 6.73L26.07 6.73L26.07 7.32C26.07 7.46 26.12 7.56 26.26 7.59C26.40 7.62 26.66 7.66 27.03 7.74L25.51 11.44C25.45 11.58 25.37 11.80 25.28 12.08C25.23 11.86 25.19 11.63 25.10 11.44L23.52 7.74C23.97 7.66 24.22 7.60 24.30 7.57C24.44 7.55 24.51 7.46 24.51 7.32L24.51 6.72L21.34 6.72L21.34 7.32C21.34 7.46 21.41 7.55 21.55 7.57C21.63 7.60 21.84 7.66 22.18 7.71L24.67 13.40L23.38 16.21L24.30 16.21C24.50 16.21 24.67 16.10 24.75 15.90L28.27 7.73C28.29 7.73 28.42 7.70 28.62 7.66C28.81 7.62 28.95 7.57 28.99 7.57C29.13 7.55 29.20 7.46 29.20 7.32L29.20 6.72ZM29.96 3.79L29.96 4.38C29.96 4.52 30.03 4.62 30.17 4.65C30.25 4.68 30.52 4.73 30.97 4.82L30.97 12.81L30.17 12.96C30.03 12.99 29.96 13.09 29.96 13.23L29.96 13.82L37.16 13.82L37.16 11.49L36.48 11.49C36.32 11.49 36.20 11.55 36.18 11.72C36.18 11.76 36.15 12.11 36.09 12.73L32.34 12.73L32.34 9.30L36.04 9.30L36.04 8.23L32.34 8.23L32.34 4.90L36.09 4.90C36.15 5.57 36.19 5.94 36.19 5.98C36.22 6.15 36.32 6.22 36.48 6.22L37.16 6.22L37.16 3.79ZM41.26 6.59C40.32 6.59 39.56 6.96 39.00 7.66C38.46 8.33 38.18 9.23 38.18 10.29C38.18 11.47 38.43 12.35 38.91 12.98C39.38 13.59 40.03 13.90 40.87 13.90C41.79 13.90 42.57 13.51 43.25 12.70L43.36 13.55C43.41 13.72 43.53 13.82 43.69 13.82L45.43 13.82L45.43 13.20C45.43 13.06 45.37 12.98 45.23 12.95C45.15 12.92 44.87 12.87 44.42 12.78L44.42 3.49L42.04 3.49L42.04 4.10C42.04 4.24 42.11 4.33 42.25 4.35C42.39 4.38 42.71 4.44 43.19 4.52L43.19 7.43C42.69 6.87 42.03 6.59 41.24 6.59ZM41.27 12.89C40.99 12.89 40.73 12.85 40.50 12.75C39.80 12.45 39.47 11.63 39.47 10.29C39.47 9.42 39.63 8.75 40.00 8.27C40.36 7.80 40.88 7.57 41.55 7.57C42.22 7.57 42.77 7.85 43.19 8.41L43.19 11.83C42.66 12.54 42.01 12.91 41.29 12.91ZM49.71 12.94C49.21 12.94 48.85 12.80 48.59 12.50C48.34 12.21 48.23 11.77 48.23 11.24L48.23 6.73L45.96 6.73L45.96 7.32C45.96 7.46 46.05 7.56 46.19 7.59C46.27 7.62 46.52 7.67 46.97 7.76L46.97 11.26C46.97 12.10 47.19 12.73 47.59 13.20C48.01 13.69 48.59 13.94 49.35 13.94C50.25 13.94 51.03 13.57 51.70 12.81L51.80 13.57C51.86 13.73 51.97 13.83 52.14 13.83L53.89 13.83L53.89 13.23C53.89 13.09 53.82 13.01 53.68 12.98C53.59 12.95 53.33 12.89 52.88 12.81L52.88 6.73L51.63 6.73L50.62 6.73L50.62 7.34C50.62 7.48 50.69 7.57 50.83 7.60C51.28 7.69 51.55 7.74 51.63 7.77L51.63 11.97C51.06 12.61 50.41 12.95 49.71 12.95Z"></path></g><defs data-v-423bf9ae=""><linearGradient data-v-423bf9ae="" gradientTransform="rotate(25)" id="debb0c32-92db-405e-88a3-2f47093c332e" x1="0%" y1="0%" x2="100%" y2="0%"><stop data-v-423bf9ae="" offset="0%" style="stop-color: rgb(13, 124, 233); stop-opacity: 1;"></stop><stop data-v-423bf9ae="" offset="100%" style="stop-color: rgb(21, 207, 241); stop-opacity: 1;"></stop></linearGradient></defs><g data-v-423bf9ae="" id="8dede5b8-98a1-49c5-ace2-a2bee701c9fc" transform="matrix(2.812499664723913,0,0,2.812499664723913,0.000005364417390296694,-0.018124997930137)" stroke="none" fill="url(#debb0c32-92db-405e-88a3-2f47093c332e)"><path d="M6.651 27h6.024v5.01h6.651V27h6.024v5.01H32v-32h-6.651V5h-6.024V.01h-6.651V5H6.651V.01H0v32h6.651V27zM19.325 7h6.024v4.666h-6.024V7zm0 6.666h6.024v4.667h-6.024v-4.667zm0 6.667h6.024V25h-6.024v-4.667zM6.651 7h6.024v4.666H6.651V7zm0 6.666h6.024v4.667H6.651v-4.667zm0 6.667h6.024V25H6.651v-4.667z"></path></g><!----><g data-v-423bf9ae="" id="4eef3fa1-ae91-485f-b757-b5239b677047" fill="#08374E" transform="matrix(0.4954210501101914,0,0,0.4954210501101914,109.77704979016903,58.95961559211843)"><path d="M1.75 4.65C1.75 4.03 2.11 3.08 4.21 3.08C5.91 3.08 6.69 3.82 6.80 4.75L7.88 4.75C7.80 3.36 6.68 2.10 4.21 2.10C1.89 2.10 0.73 3.15 0.73 4.66C0.73 7.84 7.07 6.69 7.07 8.96C7.07 10.05 6.09 10.60 4.52 10.60C2.91 10.60 1.61 10.05 1.54 8.71L0.45 8.71C0.59 10.37 1.71 11.59 4.45 11.59C6.73 11.59 8.12 10.64 8.12 8.92C8.12 5.68 1.75 6.80 1.75 4.65ZM23.32 2.21L15.81 2.21L15.81 3.22L19.04 3.22L19.04 11.48L20.09 11.48L20.09 3.22L23.32 3.22ZM32.70 7.92L35.92 7.92L38.16 11.48L39.41 11.48L36.97 7.74C38.01 7.50 39.21 6.90 39.21 5.11C39.21 3.35 38.00 2.21 36.09 2.21L31.65 2.21L31.65 11.48L32.70 11.48ZM32.70 3.21L35.97 3.21C37.28 3.21 38.16 3.93 38.16 5.11C38.16 6.55 36.90 6.93 35.91 6.93L32.70 6.93ZM54.84 3.22L54.84 2.21L48.02 2.21L48.02 11.48L54.84 11.48L54.84 10.47L49.07 10.47L49.07 7.35L54.22 7.35L54.22 6.33L49.07 6.33L49.07 3.22ZM67.69 2.21L66.37 2.21L62.44 11.48L63.60 11.48L64.74 8.79L69.33 8.79L70.46 11.48L71.62 11.48ZM65.14 7.83L67.03 3.30L68.92 7.83ZM87.60 2.21L84.34 6.61L81.02 2.21L79.80 2.21L79.80 11.48L80.85 11.48L80.85 3.81L84.34 8.22L87.77 3.81L87.77 11.48L88.82 11.48L88.82 2.21ZM98.08 2.21L98.08 11.48L104.19 11.48L104.19 10.47L99.13 10.47L99.13 2.21ZM113.60 2.21L112.55 2.21L112.55 11.48L113.60 11.48ZM129.81 2.21L129.81 10.01L124.08 2.21L122.86 2.21L122.86 11.48L123.91 11.48L123.91 3.65L129.64 11.48L130.86 11.48L130.86 2.21ZM146.94 3.22L146.94 2.21L140.13 2.21L140.13 11.48L146.94 11.48L146.94 10.47L141.18 10.47L141.18 7.35L146.33 7.35L146.33 6.33L141.18 6.33L141.18 3.22ZM154.66 13.34L155.61 13.34L156.84 10.36L155.47 10.36ZM182.52 3.22L182.52 2.21L175.70 2.21L175.70 11.48L182.52 11.48L182.52 10.47L176.75 10.47L176.75 7.35L181.90 7.35L181.90 6.33L176.75 6.33L176.75 3.22ZM191.21 2.21L191.21 11.48L197.32 11.48L197.32 10.47L192.26 10.47L192.26 2.21ZM212.49 3.22L212.49 2.21L205.67 2.21L205.67 11.48L212.49 11.48L212.49 10.47L206.72 10.47L206.72 7.35L211.88 7.35L211.88 6.33L206.72 6.33L206.72 3.22ZM227.65 2.21L224.45 10.29L221.24 2.21L220.09 2.21L223.85 11.48L225.05 11.48L228.80 2.21ZM240.53 2.21L239.22 2.21L235.28 11.48L236.45 11.48L237.58 8.79L242.17 8.79L243.31 11.48L244.47 11.48ZM237.99 7.83L239.88 3.30L241.77 7.83ZM258.40 2.21L250.88 2.21L250.88 3.22L254.11 3.22L254.11 11.48L255.16 11.48L255.16 3.22L258.40 3.22ZM273.55 3.22L273.55 2.21L266.73 2.21L266.73 11.48L273.55 11.48L273.55 10.47L267.78 10.47L267.78 7.35L272.93 7.35L272.93 6.33L267.78 6.33L267.78 3.22ZM281.26 13.34L282.21 13.34L283.44 10.36L282.07 10.36ZM302.92 4.65C302.92 4.03 303.28 3.08 305.38 3.08C307.08 3.08 307.86 3.82 307.97 4.75L309.05 4.75C308.97 3.36 307.85 2.10 305.38 2.10C303.06 2.10 301.90 3.15 301.90 4.66C301.90 7.84 308.24 6.69 308.24 8.96C308.24 10.05 307.26 10.60 305.69 10.60C304.08 10.60 302.78 10.05 302.71 8.71L301.62 8.71C301.76 10.37 302.88 11.59 305.62 11.59C307.90 11.59 309.29 10.64 309.29 8.92C309.29 5.68 302.92 6.80 302.92 4.65ZM324.63 2.21L324.63 7.52C324.63 9.67 323.20 10.57 321.73 10.57C320.26 10.57 318.85 9.67 318.85 7.52L318.85 2.21L317.80 2.21L317.80 7.49C317.80 9.95 319.42 11.59 321.73 11.59C324.06 11.59 325.68 9.94 325.68 7.49L325.68 2.21ZM338.81 10.57C336.56 10.57 335.30 8.93 335.30 6.85C335.30 4.76 336.56 3.12 338.81 3.12C340.34 3.12 341.35 3.85 341.82 4.98L342.93 4.98C342.34 3.29 340.83 2.10 338.73 2.10C335.94 2.10 334.25 4.21 334.25 6.85C334.25 9.48 335.94 11.59 338.73 11.59C340.83 11.59 342.34 10.40 342.93 8.71L341.82 8.71C341.35 9.84 340.34 10.57 338.81 10.57ZM355.40 10.57C353.15 10.57 351.89 8.93 351.89 6.85C351.89 4.76 353.15 3.12 355.40 3.12C356.93 3.12 357.94 3.85 358.41 4.98L359.52 4.98C358.93 3.29 357.42 2.10 355.32 2.10C352.53 2.10 350.84 4.21 350.84 6.85C350.84 9.48 352.53 11.59 355.32 11.59C357.42 11.59 358.93 10.40 359.52 8.71L358.41 8.71C357.94 9.84 356.93 10.57 355.40 10.57ZM374.91 3.22L374.91 2.21L368.09 2.21L368.09 11.48L374.91 11.48L374.91 10.47L369.14 10.47L369.14 7.35L374.29 7.35L374.29 6.33L369.14 6.33L369.14 3.22ZM390.42 3.22L390.42 2.21L383.60 2.21L383.60 11.48L390.42 11.48L390.42 10.47L384.65 10.47L384.65 7.35L389.80 7.35L389.80 6.33L384.65 6.33L384.65 3.22ZM403.02 2.21L399.11 2.21L399.11 11.48L403.02 11.48C405.23 11.48 407.27 9.74 407.27 6.85C407.27 3.95 405.23 2.21 403.02 2.21ZM402.98 10.49L400.16 10.49L400.16 3.21L402.98 3.21C404.95 3.21 406.22 4.86 406.22 6.85C406.22 8.83 404.95 10.49 402.98 10.49Z"></path></g></svg>